<svg width="225" height="64" viewBox="0 0 225 64" fill="none" xmlns="http://www.w3.org/2000/svg">
<path d="M174.18 39.2323L170.102 58.5204H182.152L186.23 39.2323H174.18Z" fill="#1C4F93"/>
<path d="M187.553 39.2323L183.475 58.5204H188.636L192.714 39.2323H187.553Z" fill="#D44749"/>
<path d="M95.3334 49.259C95.3334 52.266 94.4805 54.5731 92.7638 56.1695C91.0471 57.7659 88.576 58.5751 85.3394 58.5751H80.1675V40.2929H85.908C88.893 40.2929 91.2111 41.0802 92.8622 42.6547C94.5133 44.2293 95.3334 46.4271 95.3334 49.259ZM91.3095 49.3574C91.3095 45.432 89.5819 43.4639 86.1048 43.4639H84.0382V55.3713H85.7002C89.4398 55.3713 91.2986 53.3703 91.2986 49.3574H91.3095Z" fill="#D44749"/>
<path d="M109.657 58.5751H99.1277V40.2929H109.657V43.4639H103.009V47.4767H109.198V50.6586H103.009V55.3713H109.657V58.5751Z" fill="#D44749"/>
<path d="M126.091 45.9897C126.091 47.9579 125.479 49.4559 124.244 50.5056C123.019 51.5443 121.269 52.0691 118.995 52.0691H117.333V58.5751H113.462V40.2929H119.301C121.521 40.2929 123.205 40.774 124.364 41.7253C125.523 42.6766 126.091 44.0981 126.091 46.0006V45.9897ZM117.344 48.8982H118.623C119.815 48.8982 120.712 48.6577 121.302 48.1875C121.893 47.7173 122.188 47.0284 122.188 46.1318C122.188 45.2352 121.936 44.5464 121.444 44.1199C120.952 43.6826 120.176 43.4748 119.115 43.4748H117.355V48.8982H117.344Z" fill="#D44749"/>
<path d="M146.134 49.4012C146.134 52.43 145.379 54.748 143.881 56.3772C142.383 58.0065 140.229 58.8156 137.43 58.8156C134.631 58.8156 132.477 58.0065 130.979 56.3772C129.481 54.748 128.727 52.419 128.727 49.3793C128.727 46.3396 129.481 44.0106 130.979 42.4032C132.477 40.7959 134.642 39.9977 137.452 39.9977C140.262 39.9977 142.405 40.8068 143.892 42.4251C145.379 44.0434 146.123 46.3724 146.123 49.4012H146.134ZM132.794 49.4012C132.794 51.4459 133.177 52.9767 133.953 54.0154C134.729 55.0542 135.888 55.5681 137.43 55.5681C140.525 55.5681 142.066 53.5125 142.066 49.4012C142.066 45.2899 140.525 43.2233 137.452 43.2233C135.91 43.2233 134.751 43.7372 133.964 44.776C133.177 45.8147 132.783 47.3565 132.783 49.4012H132.794Z" fill="#D44749"/>
<path d="M164.635 58.5751H160.229L155.439 50.8773L153.799 52.0473V58.5751H149.928V40.2929H153.799V48.6577L155.33 46.5036L160.283 40.2929H164.58L158.206 48.3843L164.635 58.5751Z" fill="#D44749"/>
<path d="M70.0968 0H0.5V63.8235H70.0968V0Z" fill="#1C4F93"/>
<path fill-rule="evenodd" clip-rule="evenodd" d="M54.4935 31.8079C54.4935 34.1369 54.0999 36.3237 53.3345 38.4013H44.27C44.7729 37.8327 45.1994 37.1876 45.5383 36.4659C46.2491 34.9898 46.5552 33.459 46.5552 31.8079C46.5552 30.1568 46.2491 28.626 45.5383 27.1499C44.9588 25.9252 44.1716 24.9302 43.0891 24.1429C42.3674 23.629 41.602 23.2573 40.7491 23.0167C39.3823 22.6559 37.775 22.5684 36.3645 22.5684H18.7384V14.641H36.3645C38.8903 14.641 41.0334 14.8707 42.8266 15.3518C44.6199 15.8329 46.26 16.6311 47.7471 17.7026C49.8574 19.2225 51.5194 21.2235 52.7112 23.7165C53.9031 26.2205 54.5045 28.9103 54.5045 31.8079H54.4935Z" fill="white"/>
<path fill-rule="evenodd" clip-rule="evenodd" d="M52.0989 41.0364C52.0114 41.1786 51.924 41.3207 51.8365 41.4629C51.8146 41.4957 51.8037 41.5175 51.7818 41.5503C51.7818 41.5503 51.7818 41.5831 51.76 41.5831C51.7162 41.6706 51.6506 41.7581 51.6069 41.8346C51.4975 42.0205 51.3773 42.1845 51.2679 42.3485C51.2679 42.3485 51.246 42.3485 51.246 42.3704C51.2242 42.4032 51.2023 42.436 51.1804 42.4688C50.8852 42.8734 50.5681 43.2561 50.251 43.6169C50.2292 43.6388 50.2182 43.6606 50.1964 43.6825C49.2013 44.765 48.1407 45.6507 47.0473 46.3286C45.101 47.5533 43.0781 48.2202 41.4161 48.5701C41.3942 48.5701 41.3833 48.5701 41.3724 48.5701C40.2133 48.7779 38.9231 48.9091 37.5126 48.9529H37.4798C37.1189 48.9529 36.7472 48.9747 36.3645 48.9747H18.7384V25.1926H26.6767V41.0364H52.0989Z" fill="#D44749"/>
<path d="M86.2357 3.78329H92.0855L87.9961 24.0117H100.581L99.6083 28.7135H81.2059L86.2248 3.79422L86.2357 3.78329Z" fill="#1C4F93"/>
<path d="M106.355 9.54564H111.909L108.071 28.7025H102.517L106.355 9.54564ZM106.814 3.99103C106.814 2.14313 108.29 0.677921 110.51 0.677921C112.478 0.677921 113.812 1.89164 113.812 3.45524C113.812 5.48902 112.303 6.87768 110.083 6.87768C108.115 6.87768 106.814 5.59837 106.814 3.99103Z" fill="#1C4F93"/>
<path d="M136.304 17.8448C136.304 24.2851 131.602 28.9868 125.61 28.9868C122.811 28.9868 120.624 28.1012 119.367 26.133L117.464 35.6021H111.866L117.103 9.53473H122.406L122.013 11.4264C123.555 10.0377 125.566 9.25044 127.928 9.25044C132.411 9.25044 136.282 12.3886 136.282 17.8339L136.304 17.8448ZM130.64 18.0963C130.64 15.4939 129.022 13.8538 126.222 13.8538C122.953 13.8538 120.591 16.4124 120.591 20.1519C120.591 22.7543 122.166 24.3835 124.965 24.3835C128.267 24.3835 130.629 21.8249 130.629 18.0854L130.64 18.0963Z" fill="#1C4F93"/>
<path d="M161.3 9.54562L157.462 28.7025H152.148L152.541 26.6359C150.814 28.2433 148.594 28.9868 146.265 28.9868C142.143 28.9868 139.344 26.7125 139.344 22.47C139.344 21.7592 139.42 20.972 139.595 20.1519L141.716 9.54562H147.315L145.27 19.802C145.161 20.305 145.128 20.7642 145.128 21.1907C145.128 23.1151 146.167 24.1866 148.354 24.1866C151.12 24.1866 153.055 22.6231 153.733 19.2772L155.701 9.55657H161.3V9.54562Z" fill="#1C4F93"/>
<path d="M170.266 21.9342C170.189 22.2185 170.189 22.47 170.189 22.7215C170.189 23.9024 170.834 24.5694 172.234 24.5694C172.989 24.5694 173.776 24.3179 174.497 23.8914L175.318 27.8387C173.918 28.6916 172.201 28.9759 170.506 28.9759C166.92 28.9759 164.482 26.9858 164.482 23.6399C164.482 23.1042 164.558 22.5356 164.657 21.967L166.198 14.2365H163.224L164.088 9.96115H167.062L167.992 5.2922H173.59L172.661 9.96115H177.472L176.608 14.2365H171.797L170.255 21.9233L170.266 21.9342Z" fill="#1C4F93"/>
<path d="M201.079 9.54564L197.241 28.7025H191.927L192.288 26.8109C190.746 28.1996 188.734 28.9868 186.372 28.9868C181.889 28.9868 178.051 25.8487 178.051 20.4034C178.051 13.9631 182.753 9.26135 188.701 9.26135C191.5 9.26135 193.72 10.147 194.977 12.148L195.48 9.54564H201.079ZM193.764 18.0963C193.764 15.4939 192.145 13.8538 189.346 13.8538C186.044 13.8538 183.682 16.4124 183.682 20.1519C183.682 22.7543 185.301 24.3835 188.1 24.3835C191.402 24.3835 193.764 21.8249 193.764 18.0853V18.0963Z" fill="#1C4F93"/>
<path d="M224.5 15.7782C224.5 16.4889 224.424 17.2762 224.249 18.0963L222.095 28.7025H216.496L218.574 18.4462C218.683 17.9869 218.716 17.5168 218.716 17.1231C218.716 15.1659 217.644 14.0615 215.414 14.0615C212.582 14.0615 210.603 15.6251 209.925 18.971L207.989 28.6916H202.391L206.229 9.53473H211.532L211.106 11.6013C212.866 10.0049 215.086 9.25044 217.458 9.25044C221.69 9.25044 224.489 11.5248 224.489 15.7673L224.5 15.7782Z" fill="#1C4F93"/>
</svg>
