<svg width="217" height="199" viewBox="0 0 217 199" fill="none" xmlns="http://www.w3.org/2000/svg">
<path d="M217.001 0H0V199H217.001V0Z" fill="#1C4F93"/>
<path fill-rule="evenodd" clip-rule="evenodd" d="M168.351 99.1762C168.351 106.438 167.123 113.257 164.737 119.734H136.474C138.042 117.961 139.372 115.95 140.429 113.7C142.645 109.097 143.599 104.324 143.599 99.1762C143.599 94.0281 142.645 89.2552 140.429 84.6526C138.622 80.8342 136.167 77.7318 132.792 75.2771C130.542 73.6747 128.155 72.5155 125.496 71.7655C121.234 70.6404 116.223 70.3677 111.825 70.3677H56.8669V45.6504H111.825C119.7 45.6504 126.382 46.3663 131.973 47.8664C137.565 49.3665 142.679 51.8552 147.315 55.1963C153.895 59.9352 159.077 66.1742 162.793 73.9474C166.51 81.7547 168.385 90.1416 168.385 99.1762H168.351Z" fill="white"/>
<path fill-rule="evenodd" clip-rule="evenodd" d="M160.85 127.95C160.577 128.394 160.305 128.837 160.032 129.28C159.964 129.382 159.93 129.451 159.861 129.553C159.861 129.553 159.861 129.655 159.793 129.655C159.657 129.928 159.452 130.201 159.316 130.439C158.975 131.019 158.6 131.53 158.259 132.042C158.259 132.042 158.191 132.042 158.191 132.11C158.123 132.212 158.054 132.314 157.986 132.417C157.066 133.678 156.077 134.871 155.088 135.996C155.02 136.065 154.986 136.133 154.918 136.201C151.816 139.576 148.508 142.338 145.099 144.451C139.031 148.27 132.724 150.349 127.541 151.44C127.473 151.44 127.439 151.44 127.405 151.44C123.791 152.088 119.768 152.497 115.37 152.634H115.268C114.143 152.634 112.984 152.702 111.791 152.702H56.8327V78.5499H81.5842V127.95H160.85Z" fill="#D44749"/>
</svg>
